<svg xmlns="http://www.w3.org/2000/svg" version="1.1" xmlns:xlink="http://www.w3.org/1999/xlink" xmlns:svgjs="http://svgjs.dev/svgjs" width="1500" height="1500" viewBox="0 0 1500 1500"><rect width="1500" height="1500" fill="#000000"></rect><g transform="matrix(0.6666666666666666,0,0,0.6666666666666666,249.39393939393938,438.58569500674764)"><svg viewBox="0 0 396 247" data-background-color="#000000" preserveAspectRatio="xMidYMid meet" height="935" width="1500" xmlns="http://www.w3.org/2000/svg" xmlns:xlink="http://www.w3.org/1999/xlink"><g id="tight-bounds" transform="matrix(1,0,0,1,0.2400000000000091,-0.09999999999999432)"><svg viewBox="0 0 395.52 247.2" height="247.2" width="395.52"><rect width="395.52" height="247.20000000000005" fill="url(#c222961d-43d9-47eb-84aa-b69a8fccb7dc)" mask="url(#da593921-db78-446d-b428-8589d12cfc6f)" data-fill-palette-color="tertiary"></rect><g><svg></svg></g><g><svg viewBox="0 0 395.52 247.2" height="247.2" width="395.52"><g transform="matrix(1,0,0,1,75.54432,47.98376727272726)"><svg viewBox="0 0 244.43135999999998 151.23246545454546" height="151.23246545454546" width="244.43135999999998"><g><svg viewBox="0 0 244.43135999999998 151.23246545454546" height="151.23246545454546" width="244.43135999999998"><g><svg viewBox="0 0 244.43135999999998 151.23246545454546" height="151.23246545454546" width="244.43135999999998"><g><svg viewBox="0 0 244.43135999999998 151.23246545454546" height="151.23246545454546" width="244.43135999999998"><g id="textblocktransform"><svg viewBox="0 0 244.43135999999998 151.23246545454546" height="151.23246545454546" width="244.43135999999998" id="textblock"><g><svg viewBox="0 0 244.43135999999998 151.23246545454546" height="151.23246545454546" width="244.43135999999998"><g transform="matrix(1,0,0,1,0,0)"><svg width="244.43135999999998" viewBox="4.7 -35.05 56.65 35.05" height="151.23246545454546" data-palette-color="url(#6f9b6cf0-f93a-4112-8caf-b57cddf5f821)"></svg></g></svg></g></svg></g></svg></g></svg></g></svg></g></svg></g><g><path d="M0 123.6c0-68.262 55.338-123.6 123.6-123.6 30.927 0 59.201 11.359 80.878 30.133l-10.855 0c-19.51-14.64-43.754-23.313-70.023-23.314-64.496 0-116.781 52.285-116.781 116.781 0 64.496 52.285 116.781 116.781 116.781 26.269 0 50.513-8.674 70.023-23.314l10.855 0c-21.677 18.774-49.951 30.133-80.878 30.133-68.262 0-123.6-55.338-123.6-123.6z" fill="url(#c222961d-43d9-47eb-84aa-b69a8fccb7dc)" stroke="transparent" data-fill-palette-color="tertiary"></path></g></svg></g><defs></defs><mask id="adddaccc-9f3f-4714-b68b-360c4b5e0a99"><g id="SvgjsG1081"><svg viewBox="0 0 395.52 247.2" height="247.2" width="395.52"><g><svg></svg></g><g><svg viewBox="0 0 395.52 247.2" height="247.2" width="395.52"><g transform="matrix(1,0,0,1,75.54432,47.98376727272726)"><svg viewBox="0 0 244.43135999999998 151.23246545454546" height="151.23246545454546" width="244.43135999999998"><g><svg viewBox="0 0 244.43135999999998 151.23246545454546" height="151.23246545454546" width="244.43135999999998"><g><svg viewBox="0 0 244.43135999999998 151.23246545454546" height="151.23246545454546" width="244.43135999999998"><g><svg viewBox="0 0 244.43135999999998 151.23246545454546" height="151.23246545454546" width="244.43135999999998"><g id="SvgjsG1080"><svg viewBox="0 0 244.43135999999998 151.23246545454546" height="151.23246545454546" width="244.43135999999998" id="SvgjsSvg1079"><g><svg viewBox="0 0 244.43135999999998 151.23246545454546" height="151.23246545454546" width="244.43135999999998"><g transform="matrix(1,0,0,1,0,0)"><svg width="244.43135999999998" viewBox="4.7 -35.05 56.65 35.05" height="151.23246545454546" data-palette-color="url(#6f9b6cf0-f93a-4112-8caf-b57cddf5f821)"><path d="M6.2-35L18.05-35Q20.85-35 23-33.73 25.15-32.45 26.4-30.2 27.65-27.95 27.65-25.05L27.65-25.05Q27.65-22.15 26.4-19.83 25.15-17.5 23-16.15 20.85-14.8 18.05-14.8L18.05-14.8 7.45-14.8 7.7-15.3 7.7-1.5Q7.7-0.9 7.25-0.45 6.8 0 6.2 0L6.2 0Q5.5 0 5.1-0.45 4.7-0.9 4.7-1.5L4.7-1.5 4.7-33.5Q4.7-34.1 5.15-34.55 5.6-35 6.2-35L6.2-35ZM7.4-17.7L18.05-17.7Q20-17.7 21.45-18.68 22.9-19.65 23.73-21.33 24.55-23 24.55-25.05L24.55-25.05Q24.55-27.1 23.73-28.68 22.9-30.25 21.45-31.15 20-32.05 18.05-32.05L18.05-32.05 7.45-32.05 7.7-32.5 7.7-17.4 7.4-17.7ZM59.8-35.05L59.8-35.05Q60.5-35.05 60.92-34.65 61.35-34.25 61.35-33.65L61.35-33.65Q61.35-33.3 61.2-32.9L61.2-32.9 47.85-1Q47.6-0.5 47.2-0.25 46.8 0 46.4 0L46.4 0Q45.95 0 45.55-0.25 45.15-0.5 45-0.95L45-0.95 31.7-32.8Q31.65-32.95 31.6-33.15 31.55-33.35 31.55-33.6L31.55-33.6Q31.55-34.25 32.02-34.65 32.5-35.05 33-35.05L33-35.05Q34.05-35.05 34.5-33.95L34.5-33.95 47-4.05 46.1-4.05 58.4-34.05Q58.9-35.05 59.8-35.05Z" opacity="1" transform="matrix(1,0,0,1,0,0)" fill="white" class="wordmark-text-0" id="SvgjsPath1078"></path></svg></g></svg></g></svg></g></svg></g></svg></g></svg></g></svg></g><g><path d="M0 123.6c0-68.262 55.338-123.6 123.6-123.6 30.927 0 59.201 11.359 80.878 30.133l-10.855 0c-19.51-14.64-43.754-23.313-70.023-23.314-64.496 0-116.781 52.285-116.781 116.781 0 64.496 52.285 116.781 116.781 116.781 26.269 0 50.513-8.674 70.023-23.314l10.855 0c-21.677 18.774-49.951 30.133-80.878 30.133-68.262 0-123.6-55.338-123.6-123.6z" fill="black" stroke="transparent"></path></g></svg></g><defs><mask></mask></defs></svg><rect width="395.52" height="247.2" fill="black" stroke="none" visibility="hidden"></rect></g></mask><linearGradient x1="0.054" x2="0.941" y1="0.5" y2="0.5" id="6f9b6cf0-f93a-4112-8caf-b57cddf5f821"><stop stop-color="#0f3054" offset="0"></stop><stop stop-color="#3b8dcb" offset="0.498"></stop><stop stop-color="#0f3054" offset="1"></stop></linearGradient><rect width="395.52" height="247.20000000000005" fill="url(#6f9b6cf0-f93a-4112-8caf-b57cddf5f821)" mask="url(#adddaccc-9f3f-4714-b68b-360c4b5e0a99)" data-fill-palette-color="primary"></rect><mask id="da593921-db78-446d-b428-8589d12cfc6f"><g id="SvgjsG1104"><svg viewBox="0 0 395.52 247.2" height="247.2" width="395.52"><g><svg></svg></g><g><svg viewBox="0 0 395.52 247.2" height="247.2" width="395.52"><g transform="matrix(1,0,0,1,75.54432,47.98376727272726)"><svg viewBox="0 0 244.43135999999998 151.23246545454546" height="151.23246545454546" width="244.43135999999998"><g><svg viewBox="0 0 244.43135999999998 151.23246545454546" height="151.23246545454546" width="244.43135999999998"><g><svg viewBox="0 0 244.43135999999998 151.23246545454546" height="151.23246545454546" width="244.43135999999998"><g><svg viewBox="0 0 244.43135999999998 151.23246545454546" height="151.23246545454546" width="244.43135999999998"><g id="SvgjsG1103"><svg viewBox="0 0 244.43135999999998 151.23246545454546" height="151.23246545454546" width="244.43135999999998" id="SvgjsSvg1102"><g><svg viewBox="0 0 244.43135999999998 151.23246545454546" height="151.23246545454546" width="244.43135999999998"><g transform="matrix(1,0,0,1,0,0)"><svg width="244.43135999999998" viewBox="4.7 -35.05 56.65 35.05" height="151.23246545454546" data-palette-color="url(#6f9b6cf0-f93a-4112-8caf-b57cddf5f821)"></svg></g></svg></g></svg></g></svg></g></svg></g></svg></g></svg></g><g><path d="M0 123.6c0-68.262 55.338-123.6 123.6-123.6 30.927 0 59.201 11.359 80.878 30.133l-10.855 0c-19.51-14.64-43.754-23.313-70.023-23.314-64.496 0-116.781 52.285-116.781 116.781 0 64.496 52.285 116.781 116.781 116.781 26.269 0 50.513-8.674 70.023-23.314l10.855 0c-21.677 18.774-49.951 30.133-80.878 30.133-68.262 0-123.6-55.338-123.6-123.6z" fill="white" stroke="transparent"></path></g></svg></g><defs><mask></mask></defs><mask><g id="SvgjsG1101"><svg viewBox="0 0 395.52 247.2" height="247.2" width="395.52"><g><svg></svg></g><g><svg viewBox="0 0 395.52 247.2" height="247.2" width="395.52"><g transform="matrix(1,0,0,1,75.54432,47.98376727272726)"><svg viewBox="0 0 244.43135999999998 151.23246545454546" height="151.23246545454546" width="244.43135999999998"><g><svg viewBox="0 0 244.43135999999998 151.23246545454546" height="151.23246545454546" width="244.43135999999998"><g><svg viewBox="0 0 244.43135999999998 151.23246545454546" height="151.23246545454546" width="244.43135999999998"><g><svg viewBox="0 0 244.43135999999998 151.23246545454546" height="151.23246545454546" width="244.43135999999998"><g id="SvgjsG1100"><svg viewBox="0 0 244.43135999999998 151.23246545454546" height="151.23246545454546" width="244.43135999999998" id="SvgjsSvg1099"><g><svg viewBox="0 0 244.43135999999998 151.23246545454546" height="151.23246545454546" width="244.43135999999998"><g transform="matrix(1,0,0,1,0,0)"><svg width="244.43135999999998" viewBox="4.7 -35.05 56.65 35.05" height="151.23246545454546" data-palette-color="url(#6f9b6cf0-f93a-4112-8caf-b57cddf5f821)"><path d="M6.2-35L18.05-35Q20.85-35 23-33.73 25.15-32.45 26.4-30.2 27.65-27.95 27.65-25.05L27.65-25.05Q27.65-22.15 26.4-19.83 25.15-17.5 23-16.15 20.85-14.8 18.05-14.8L18.05-14.8 7.45-14.8 7.7-15.3 7.7-1.5Q7.7-0.9 7.25-0.45 6.8 0 6.2 0L6.2 0Q5.5 0 5.1-0.45 4.7-0.9 4.7-1.5L4.7-1.5 4.7-33.5Q4.7-34.1 5.15-34.55 5.6-35 6.2-35L6.2-35ZM7.4-17.7L18.05-17.7Q20-17.7 21.45-18.68 22.9-19.65 23.73-21.33 24.55-23 24.55-25.05L24.55-25.05Q24.55-27.1 23.73-28.68 22.9-30.25 21.45-31.15 20-32.05 18.05-32.05L18.05-32.05 7.45-32.05 7.7-32.5 7.7-17.4 7.4-17.7ZM59.8-35.05L59.8-35.05Q60.5-35.05 60.92-34.65 61.35-34.25 61.35-33.65L61.35-33.65Q61.35-33.3 61.2-32.9L61.2-32.9 47.85-1Q47.6-0.5 47.2-0.25 46.8 0 46.4 0L46.4 0Q45.95 0 45.55-0.25 45.15-0.5 45-0.95L45-0.95 31.7-32.8Q31.65-32.95 31.6-33.15 31.55-33.35 31.55-33.6L31.55-33.6Q31.55-34.25 32.02-34.65 32.5-35.05 33-35.05L33-35.05Q34.05-35.05 34.5-33.95L34.5-33.95 47-4.05 46.1-4.05 58.4-34.05Q58.9-35.05 59.8-35.05Z" opacity="1" transform="matrix(1,0,0,1,0,0)" fill="black" class="wordmark-text-0" id="SvgjsPath1098"></path></svg></g></svg></g></svg></g></svg></g></svg></g></svg></g></svg></g><g><path d="M0 123.6c0-68.262 55.338-123.6 123.6-123.6 30.927 0 59.201 11.359 80.878 30.133l-10.855 0c-19.51-14.64-43.754-23.313-70.023-23.314-64.496 0-116.781 52.285-116.781 116.781 0 64.496 52.285 116.781 116.781 116.781 26.269 0 50.513-8.674 70.023-23.314l10.855 0c-21.677 18.774-49.951 30.133-80.878 30.133-68.262 0-123.6-55.338-123.6-123.6z" fill="black" stroke="transparent"></path></g></svg></g><defs><mask></mask></defs></svg><rect width="395.52" height="247.2" fill="black" stroke="none" visibility="hidden"></rect></g></mask></svg><rect width="395.52" height="247.2" fill="black" stroke="none" visibility="hidden"></rect></g></mask><linearGradient x1="0.054" x2="0.941" y1="0.5" y2="0.5" id="c222961d-43d9-47eb-84aa-b69a8fccb7dc"><stop stop-color="#0f3054" offset="0"></stop><stop stop-color="#3b8dcb" offset="0.498"></stop><stop stop-color="#0f3054" offset="1"></stop></linearGradient></svg><rect width="395.52" height="247.2" fill="none" stroke="none" visibility="hidden"></rect></g></svg></g></svg>